<?xml version="1.0" standalone="no"?>
<!DOCTYPE svg PUBLIC "-//W3C//DTD SVG 20010904//EN"
 "http://www.w3.org/TR/2001/REC-SVG-20010904/DTD/svg10.dtd">
<svg version="1.0" xmlns="http://www.w3.org/2000/svg"
 width="460.000000pt" height="460.000000pt" viewBox="0 0 460.000000 460.000000"
 preserveAspectRatio="xMidYMid meet">
<metadata>
Created by potrace 1.11, written by Peter Selinger 2001-2013
</metadata>
<g transform="translate(0.000000,460.000000) scale(0.100000,-0.100000)"
fill="#000000" stroke="none">
<path d="M580 4329 c0 -5 5 -7 10 -4 6 3 10 8 10 11 0 2 -4 4 -10 4 -5 0 -10
-5 -10 -11z"/>
<path d="M590 4249 c0 -7 -10 -23 -21 -36 -18 -18 -20 -25 -9 -38 7 -8 17 -15
22 -15 6 0 5 6 -2 14 -9 12 -7 18 9 33 23 19 27 38 11 48 -5 3 -10 1 -10 -6z"/>
<path d="M446 4114 c-9 -22 -8 -26 5 -18 8 4 9 0 4 -15 -8 -25 12 -28 41 -6
19 14 18 15 -6 35 -30 24 -36 24 -44 4z"/>
<path d="M1744 3863 c1 -15 6 -26 11 -23 11 5 8 30 -4 43 -5 4 -8 -5 -7 -20z"/>
<path d="M2608 3867 c-11 -27 -10 -355 1 -362 5 -3 11 -2 13 2 2 5 1 91 -2
193 -3 102 -8 177 -12 167z"/>
<path d="M1093 3858 c-27 -13 -26 0 -25 -213 l1 -170 45 -50 c26 -27 46 -55
46 -62 0 -19 18 -16 29 5 5 9 12 34 16 55 4 21 12 44 19 50 32 36 36 60 36
210 0 136 -2 156 -18 170 -21 20 -113 22 -149 5z"/>
<path d="M1570 3838 c0 -7 -2 -84 -3 -172 l-2 -159 75 -1 75 -1 3 148 3 147
-30 0 c-16 0 -33 5 -36 10 -3 6 -12 10 -19 10 -8 0 -12 -20 -13 -62 0 -35 -2
-81 -3 -103 l-2 -40 -9 35 c-15 57 -17 83 -8 107 5 15 3 34 -7 58 -15 36 -24
44 -24 23z"/>
<path d="M1787 3842 c-4 -4 -8 -81 -12 -169 l-5 -161 40 -4 c23 -2 43 -2 46 1
6 7 5 307 -2 325 -13 33 -24 14 -24 -42 0 -32 -4 -62 -9 -67 -5 -6 -12 -28
-14 -50 -3 -22 -4 6 -4 62 1 97 -4 126 -16 105z m40 -199 c-2 -16 -4 -3 -4 27
0 30 2 43 4 28 2 -16 2 -40 0 -55z"/>
<path d="M2686 3834 c-3 -9 -6 -81 -6 -161 0 -81 -2 -144 -5 -141 -3 2 -7 66
-9 142 -3 76 -7 140 -10 143 -3 3 -6 -65 -8 -151 l-3 -156 58 0 59 0 -4 154
c-3 165 -16 190 -19 38 -2 -97 -18 -129 -20 -39 -1 44 -2 48 -9 22 -6 -22 -8
-8 -9 50 0 60 2 76 10 65 9 -12 10 -12 5 3 -3 10 -6 25 -6 33 0 19 -16 18 -24
-2z"/>
<path d="M1413 3813 c-3 -9 -7 -82 -7 -162 l-1 -146 35 0 c40 0 36 -25 32 205
l-2 120 -25 0 c-15 0 -28 -7 -32 -17z"/>
<path d="M1955 3818 c-2 -7 -5 -22 -7 -33 -2 -12 -11 -19 -21 -19 -15 2 -17
-11 -19 -102 -1 -57 -2 -116 -2 -131 -1 -26 1 -28 49 -28 28 0 51 3 53 8 1 4
2 77 2 162 l0 155 -25 0 c-14 0 -27 -6 -30 -12z"/>
<path d="M2099 3680 c-1 -82 -2 -155 -3 -162 -1 -7 25 -11 79 -12 l80 -1 -2
115 c-1 63 -2 130 -2 148 -1 28 -4 32 -29 32 -15 0 -32 4 -37 9 -6 5 -27 12
-47 15 l-38 7 -1 -151z m67 122 c-3 -5 -6 -45 -7 -89 -3 -120 -17 -123 -21 -5
-3 93 -1 102 15 102 10 0 16 -4 13 -8z"/>
<path d="M2455 3818 c-3 -8 -4 -81 -3 -163 l3 -150 30 0 30 0 0 160 0 160 -28
3 c-16 2 -29 -2 -32 -10z"/>
<path d="M2550 3816 c0 -8 5 -18 10 -21 6 -3 10 3 10 14 0 12 -4 21 -10 21 -5
0 -10 -6 -10 -14z"/>
<path d="M1520 3813 c0 -5 -1 -74 -3 -155 -1 -82 1 -148 5 -148 4 0 8 70 8
155 0 85 -2 155 -5 155 -3 0 -5 -3 -5 -7z"/>
<path d="M2052 3663 c-1 -84 1 -153 6 -153 4 0 6 53 4 117 -4 186 -8 201 -10
36z"/>
<path d="M1312 3653 c3 -140 4 -148 23 -148 19 0 20 8 23 123 2 104 0 126 -15
147 -10 13 -21 25 -26 25 -4 0 -6 -66 -5 -147z"/>
<path d="M2353 3600 c0 -25 2 -35 4 -22 2 12 2 32 0 45 -2 12 -4 2 -4 -23z"/>
<path d="M2556 3599 c-9 -47 -7 -89 4 -89 6 0 10 27 10 60 0 67 -4 76 -14 29z"/>
<path d="M3226 3588 c-9 -12 -16 -40 -16 -61 0 -34 -7 -46 -45 -83 -40 -38
-52 -54 -42 -54 2 0 14 9 27 20 13 12 29 19 36 16 7 -3 14 -2 16 2 2 4 27 6
55 4 29 -2 50 -8 47 -13 -3 -5 7 -9 23 -9 22 0 25 2 13 11 -12 8 -11 10 5 7
23 -4 30 -44 43 -245 l7 -118 40 -7 c22 -4 105 -7 185 -8 159 0 230 -8 208
-21 -9 -6 -7 -9 10 -9 24 0 28 -10 10 -28 -9 -9 -7 -12 10 -12 12 0 22 5 22
10 0 6 9 10 20 10 11 0 29 5 40 10 11 6 29 14 39 20 23 11 88 -12 97 -33 2 -7
-51 -125 -119 -262 -69 -138 -127 -258 -131 -268 -3 -10 4 -60 15 -110 12 -51
28 -119 35 -152 8 -33 16 -73 19 -90 4 -16 13 -49 21 -73 17 -52 18 -124 2
-140 -9 -9 -7 -16 7 -32 18 -20 27 -20 344 -18 l326 3 3 713 2 712 -178 0
c-98 0 -205 -5 -237 -11 -33 -6 -103 -33 -159 -62 l-101 -51 -193 -4 c-142 -3
-196 -1 -207 8 -12 10 -15 49 -15 221 0 196 -1 209 -19 219 -11 5 -71 10 -135
10 -107 0 -116 -1 -130 -22z"/>
<path d="M1741 3574 c0 -11 3 -14 6 -6 3 7 2 16 -1 19 -3 4 -6 -2 -5 -13z"/>
<path d="M2345 3537 c-4 -10 -5 -21 -1 -24 10 -10 18 4 13 24 -4 17 -4 17 -12
0z"/>
<path d="M1736 3525 c-3 -8 -1 -15 4 -15 6 0 10 7 10 15 0 8 -2 15 -4 15 -2 0
-6 -7 -10 -15z"/>
<path d="M3146 3531 c-4 -7 -5 -15 -2 -18 9 -9 19 4 14 18 -4 11 -6 11 -12 0z"/>
<path d="M2830 3370 c0 -5 9 -10 21 -10 11 0 17 5 14 10 -3 6 -13 10 -21 10
-8 0 -14 -4 -14 -10z"/>
<path d="M3081 3371 c-8 -5 -20 -7 -28 -4 -7 3 -13 0 -13 -6 0 -6 -9 -11 -20
-11 -11 0 -20 5 -20 10 0 6 -17 10 -37 10 -26 0 -34 -3 -24 -9 11 -7 10 -10
-5 -14 -10 -2 20 -5 67 -6 74 -1 88 2 104 19 14 15 15 20 4 20 -8 0 -20 -4
-28 -9z"/>
<path d="M3790 2906 c-30 -9 -41 -23 -76 -91 -187 -367 -236 -466 -231 -471
11 -11 152 19 165 34 6 9 12 24 12 35 0 10 7 25 15 33 8 8 12 21 9 29 -4 8 -1
15 5 15 7 0 11 6 9 13 -6 25 106 361 131 390 17 21 2 27 -39 13z"/>
<path d="M3520 2090 c0 -8 50 -24 56 -18 2 2 -10 9 -26 15 -17 6 -30 8 -30 3z"/>
<path d="M3801 2066 c-7 -8 -10 -20 -6 -27 5 -8 0 -9 -16 -4 -18 5 -20 4 -10
-4 13 -8 12 -15 -4 -45 -18 -33 -23 -36 -65 -37 -248 -2 -338 -7 -354 -16 -22
-12 -17 -16 54 -36 111 -31 138 -37 169 -37 26 0 31 4 31 24 0 15 -7 27 -17
30 -10 2 40 4 111 3 111 -1 130 1 141 16 7 9 24 17 39 17 29 0 30 1 15 53 -10
37 -22 46 -34 27 -10 -16 -25 -12 -25 8 0 9 -4 23 -9 30 -6 10 -10 10 -20 -2z"/>
<path d="M1780 2010 c0 -17 9 -65 21 -108 23 -86 43 -192 65 -357 24 -177 41
-217 116 -278 31 -25 48 -30 107 -35 52 -3 71 -8 71 -19 0 -18 -28 -145 -44
-203 -8 -25 -19 -70 -26 -100 -7 -30 -30 -122 -52 -204 -21 -82 -37 -156 -36
-165 7 -30 26 20 53 140 42 181 61 256 94 382 17 65 31 121 31 124 0 3 7 3 15
-1 12 -4 14 0 9 19 l-6 25 162 -2 162 -2 -5 -30 c-4 -26 -3 -27 9 -11 8 10 16
17 18 14 5 -4 27 -89 52 -198 26 -115 57 -216 71 -231 21 -23 23 -32 -47 235
-56 214 -55 206 -40 215 7 5 68 9 134 9 66 1 125 6 129 10 14 14 -16 51 -61
76 -30 17 -43 20 -52 11 -8 -8 -106 -11 -338 -11 -325 1 -328 1 -350 23 -12
12 -30 22 -40 22 -9 0 -23 9 -30 20 -7 11 -19 20 -27 20 -8 0 -15 3 -16 8 0 4
-2 16 -5 27 -2 11 -10 60 -18 109 -8 48 -17 94 -20 101 -3 8 -10 51 -16 97 -7
46 -16 88 -21 95 -6 6 -13 37 -16 67 -3 31 -10 53 -14 50 -5 -3 -12 13 -15 36
-8 49 -24 63 -24 20z"/>
<path d="M3213 1913 c-8 -3 -13 -25 -13 -57 l0 -53 85 -41 c78 -38 101 -61 76
-76 -5 -3 -87 -8 -183 -10 -188 -5 -278 8 -309 45 -15 16 -18 17 -23 3 -3 -9
-6 -17 -6 -19 0 -1 21 -12 48 -23 42 -18 75 -20 308 -24 l260 -5 0 84 c-1 72
-3 83 -18 83 -10 0 -18 4 -18 8 0 5 -10 8 -22 8 -14 -1 -23 5 -23 14 0 10 -8
14 -22 12 -14 -2 -26 4 -33 17 -6 12 -16 18 -25 15 -10 -4 -15 0 -15 11 0 14
-3 15 -15 5 -10 -9 -15 -9 -15 -1 0 11 -16 13 -37 4z"/>
<path d="M3460 1845 c-7 -8 -8 -15 -2 -15 5 0 15 7 22 15 7 8 8 15 2 15 -5 0
-15 -7 -22 -15z"/>
<path d="M3510 1725 c0 -67 2 -75 19 -75 26 0 39 -19 43 -65 l3 -40 90 -3 c50
-2 182 0 295 3 237 8 237 2 0 97 -156 62 -193 84 -198 115 -4 29 -56 43 -160
43 l-92 0 0 -75z"/>
<path d="M3400 1600 l-45 -5 40 -27 c52 -37 65 -36 60 3 -3 18 -6 32 -7 33 -2
1 -23 -1 -48 -4z"/>
<path d="M3510 1576 c0 -20 5 -36 10 -36 6 0 10 13 10 29 0 17 -4 33 -10 36
-6 4 -10 -8 -10 -29z"/>
<path d="M3629 1483 c-26 -7 -12 -43 17 -43 14 0 24 -6 24 -14 0 -8 7 -16 15
-20 10 -3 15 -19 15 -44 0 -45 19 -69 39 -49 15 15 30 -6 32 -43 0 -14 4 -34
9 -45 6 -13 7 -5 3 24 -4 32 -3 42 5 37 8 -5 12 -53 12 -149 0 -171 18 -177
23 -7 1 63 4 -28 4 -202 2 -318 2 -318 -20 -330 -24 -14 -29 -15 -70 -17 -18
-1 -26 -5 -21 -12 3 -6 15 -9 25 -6 11 3 19 1 19 -4 0 -5 -7 -9 -15 -9 -8 0
-15 -7 -15 -15 0 -8 -9 -15 -20 -15 -38 0 -21 -52 34 -99 10 -9 26 -23 35 -32
9 -9 24 -19 34 -22 9 -4 17 -16 17 -27 0 -15 8 -22 30 -26 17 -4 30 -13 30
-21 0 -11 7 -13 24 -9 14 3 37 1 53 -6 15 -6 30 -12 33 -13 3 -1 18 -7 33 -13
16 -7 39 -12 53 -12 13 0 24 -4 24 -10 0 -5 17 -14 38 -19 20 -6 56 -28 79
-50 23 -22 44 -37 47 -34 3 4 6 300 6 658 0 645 0 653 -21 679 l-20 26 -297
-1 c-163 -1 -304 -3 -313 -6z m521 -1247 c0 -3 -4 -8 -10 -11 -5 -3 -10 -1
-10 4 0 6 5 11 10 11 6 0 10 -2 10 -4z"/>
<path d="M2432 1140 c-7 -11 -9 -20 -4 -20 10 0 32 22 32 32 0 15 -15 8 -28
-12z"/>
<path d="M2230 1104 c0 -10 5 -26 10 -34 8 -11 9 -7 4 15 -8 37 -14 45 -14 19z"/>
<path d="M2480 1101 c0 -5 -3 -18 -6 -28 -5 -16 -4 -16 10 1 18 23 20 36 6 36
-5 0 -10 -4 -10 -9z"/>
<path d="M2356 1045 c-3 -9 0 -15 9 -15 8 0 15 7 15 15 0 8 -4 15 -9 15 -5 0
-11 -7 -15 -15z"/>
<path d="M2290 1020 c0 -5 5 -10 11 -10 5 0 7 5 4 10 -3 6 -8 10 -11 10 -2 0
-4 -4 -4 -10z"/>
<path d="M2420 1020 c0 -5 5 -10 10 -10 6 0 10 5 10 10 0 6 -4 10 -10 10 -5 0
-10 -4 -10 -10z"/>
<path d="M2337 1003 c16 -5 2 -34 -66 -136 -26 -40 -65 -100 -86 -135 -22 -35
-55 -86 -72 -113 -18 -28 -33 -55 -33 -60 0 -5 -4 -9 -9 -9 -5 0 -14 -14 -21
-30 -7 -17 -14 -29 -16 -27 -5 5 21 65 93 216 29 63 51 116 48 119 -2 3 -41
-70 -84 -161 -62 -128 -84 -165 -96 -161 -8 3 -15 1 -15 -5 0 -6 5 -11 10 -11
6 0 10 -13 10 -30 0 -16 4 -30 8 -30 5 0 49 64 98 143 49 78 92 147 97 152 4
6 37 60 73 120 90 149 91 151 109 116 15 -30 62 -106 130 -211 35 -52 75 -119
91 -148 16 -29 35 -61 44 -70 8 -10 24 -33 34 -52 38 -67 59 -74 46 -15 -8 36
-231 497 -238 491 -5 -5 22 -64 185 -401 22 -45 22 -48 3 -25 -11 14 -41 57
-66 95 -121 186 -151 233 -177 278 -15 27 -34 56 -42 63 -7 8 -15 18 -17 23
-1 5 -14 11 -28 14 -14 2 -19 2 -13 0z"/>
<path d="M2721 584 c0 -11 3 -14 6 -6 3 7 2 16 -1 19 -3 4 -6 -2 -5 -13z"/>
<path d="M2736 525 c7 -53 36 -153 40 -140 2 6 -8 48 -21 95 -14 47 -23 67
-19 45z"/>
<path d="M3665 510 c3 -5 8 -10 11 -10 2 0 4 5 4 10 0 6 -5 10 -11 10 -5 0 -7
-4 -4 -10z"/>
<path d="M2781 354 c0 -11 3 -14 6 -6 3 7 2 16 -1 19 -3 4 -6 -2 -5 -13z"/>
<path d="M1930 261 c0 -11 21 -19 38 -14 21 8 13 23 -13 23 -14 0 -25 -4 -25
-9z"/>
<path d="M2756 261 c-7 -11 14 -20 32 -14 6 3 12 9 12 14 0 12 -37 12 -44 0z"/>
</g>
</svg>
